#!OML:ASF H:\MichaelJackson\Top Level 1\Subject 1\Session 1\male.ASF
:FULLY-SPECIFIED
:DEGREES
221
root 5.78483 24.4067 -10.5065 3.66485 -1.28726 -7.06024
lowerback 23.3637 2.5621 6.24285
upperback 5.51502 5.61527 9.54099
thorax -7.33324 2.6494 5.33048
lowerneck -10.3877 -6.91586 1.34815
upperneck 5.14379 -9.58012 2.03316
head 3.54283 -4.61967 -0.1672
rclavicle 4.05521e-014 4.13472e-014
rhumerus 10.972 -14.5302 -3.916
rradius 24.8256
rwrist 7.29656
rhand -37.6476 -39.3324
rfingers 7.12502
rthumb -10.6993 -69.04
lclavicle 4.05521e-014 4.13472e-014
lhumerus -12.2545 -3.15526 20.096
lradius 113.466
lwrist 46.0345
lhand -26.6107 6.4554
lfingers 7.12502
lthumb -0.0440969 36.4351
rfemur -58.8882 -26.5925 -17.7572
rtibia 39.1587
rfoot -2.32491 -24.5344
rtoes 14.6974
lfemur -30.7846 32.4548 3.5058
ltibia 103.633
lfoot 8.85419 -13.7913
ltoes 19.6502
222
root 5.74409 24.2539 -10.3609 3.52772 -1.58163 -6.80769
lowerback 23.1608 2.73508 6.14626
upperback 5.51099 5.78017 9.40166
thorax -7.2355 2.7314 5.1835
lowerneck -10.409 -6.98993 1.27207
upperneck 5.37206 -9.66416 1.87909
head 3.62274 -4.66504 -0.216384
rclavicle 3.49861e-014 3.18055e-015
rhumerus 10.6218 -15.4322 -2.84816
rradius 24.2546
rwrist 6.56953
rhand -37.3882 -39.3317
rfingers 7.12502
rthumb -10.4491 -69.052
lclavicle 3.49861e-014 3.18055e-015
lhumerus -12.6423 -3.59231 19.7299
lradius 112.981
lwrist 46.7622
lhand -26.5244 6.75151
lfingers 7.12502
lthumb 0.0393054 36.7312
rfemur -62.4774 -28.6492 -15.0374
rtibia 45.3315
rfoot -0.37173 -19.5908
rtoes 8.35817
lfemur -30.06 30.4608 2.25756
ltibia 100.947
lfoot 7.49663 -14.1992
ltoes 19.6679
223
root 5.70081 24.0886 -10.2131 3.42297 -1.84824 -6.57403
lowerback 22.8714 2.8863 5.99114
upperback 5.48503 5.89747 9.25723
thorax -7.11941 2.79269 5.08217
lowerneck -10.4026 -7.03367 1.22081
upperneck 5.54611 -9.7093 1.73676
head 3.67751 -4.69174 -0.260996
rclavicle -2.8625e-014 -6.99722e-014
rhumerus 10.208 -15.8691 -1.69284
rradius 23.9079
rwrist 6.02241
rhand -37.0732 -39.2795
rfingers 7.12502
rthumb -10.1453 -69.0149
lclavicle -2.8625e-014 -6.99722e-014
lhumerus -13.1108 -4.01297 19.2894
lradius 112.477
lwrist 47.5437
lhand -25.9643 7.04994
lfingers 7.12502
lthumb 0.580243 37.0289
rfemur -65.872 -30.2554 -12.5919
rtibia 51.6204
rfoot 0.955226 -15.0013
rtoes 4.69509
lfemur -29.3757 28.4757 1.00927
ltibia 98.1741
lfoot 6.71977 -14.9405
ltoes 19.7013
224
root 5.65645 23.9128 -10.0647 3.35373 -2.0592 -6.37808
lowerback 22.5056 3.00042 5.8134
upperback 5.43392 5.95764 9.10562
thorax -6.98928 2.82772 5.00621
lowerneck -10.3728 -7.04853 1.19754
upperneck 5.66198 -9.71983 1.62689
head 3.70753 -4.7007 -0.295061
rclavicle 2.70347e-014 -1.11319e-014
rhumerus 9.71001 -15.814 -0.459758
rradius 23.746
rwrist 5.69173
rhand -36.7289 -39.0864
rfingers 7.12502
rthumb -9.81314 -68.8377
lclavicle 2.70347e-014 -1.11319e-014
lhumerus -13.6302 -4.34838 18.7862
lradius 111.884
lwrist 48.1689
lhand -24.9957 7.32921
lfingers 7.12502
lthumb 1.51574 37.3036
rfemur -69.0218 -31.5338 -10.3431
rtibia 57.9201
rfoot 1.9605 -10.9832
rtoes 3.99444
lfemur -28.7528 26.494 -0.241328
ltibia 95.3138
lfoot 6.44498 -15.8253
ltoes 19.7404
225
root 5.61144 23.7281 -9.91587 3.31236 -2.19347 -6.2382
lowerback 22.0746 3.06502 5.6438
upperback 5.36399 5.95282 8.95236
thorax -6.84067 2.83199 4.94591
lowerneck -10.3336 -7.03536 1.19404
upperneck 5.72774 -9.69762 1.56301
head 3.71958 -4.69196 -0.31372
rclavicle -4.37326e-014 -6.04305e-014
rhumerus 9.1244 -15.269 0.831857
rradius 23.7662
rwrist 5.47539
rhand -36.3904 -38.8798
rfingers 7.12502
rthumb -9.48648 -68.6463
lclavicle -4.37326e-014 -6.04305e-014
lhumerus -14.1887 -4.54413 18.2463
lradius 111.154
lwrist 48.4682
lhand -23.8272 7.59641
lfingers 7.12502
lthumb 2.64426 37.5598
rfemur -71.893 -32.5898 -8.19858
rtibia 64.1361
rfoot 2.94459 -7.70787
rtoes 5.41411
lfemur -28.1739 24.5084 -1.47155
ltibia 92.3635
lfoot 6.51522 -16.6673
ltoes 19.7207
226
root 5.56621 23.5345 -9.76663 3.29813 -2.24543 -6.17689
lowerback 21.5921 3.07354 5.5281
upperback 5.27416 5.8857 8.79748
thorax -6.67701 2.80564 4.87337
lowerneck -10.2915 -6.99504 1.20956
upperneck 5.76382 -9.64477 1.54788
head 3.72241 -4.66586 -0.31693
rclavicle -2.94201e-014 -6.04305e-014
rhumerus 8.46749 -14.3362 2.11854
rradius 23.9287
rwrist 5.36844
rhand -36.0877 -38.6575
rfingers 7.12502
rthumb -9.19442 -68.437
lclavicle -2.94201e-014 -6.04305e-014
lhumerus -14.7691 -4.57614 17.6897
lradius 110.254
lwrist 48.3432
lhand -22.6585 7.82277
lfingers 7.12502
lthumb 3.77287 37.7691
rfemur -74.4661 -33.4906 -6.0704
rtibia 70.1767
rfoot 4.04986 -5.31355
rtoes 8.15922
lfemur -27.6241 22.5196 -2.65047
ltibia 89.3196
lfoot 6.78669 -17.3129
ltoes 19.6765
227
root 5.52103 23.332 -9.61647 3.31141 -2.22684 -6.20326
lowerback 21.0687 3.02944 5.49286
upperback 5.16321 5.76664 8.64126
thorax -6.50313 2.75293 4.76967
lowerneck -10.2562 -6.9282 1.24698
upperneck 5.79772 -9.56216 1.56556
head 3.72652 -4.62292 -0.311561
rclavicle 7.55382e-014 1.30403e-013
rhumerus 7.76234 -13.1539 3.33831
rradius 24.1996
rwrist 5.36415
rhand -35.8296 -38.3435
rfingers 7.12502
rthumb -8.94541 -68.1339
lclavicle 7.55382e-014 1.30403e-013
lhumerus -15.3584 -4.44193 17.1418
lradius 109.18
lwrist 47.7957
lhand -21.6855 8.01244
lfingers 7.12502
lthumb 4.71241 37.94
rfemur -76.7244 -34.2653 -3.903
rtibia 75.9605
rfoot 5.30426 -3.90294
rtoes 11.4815
lfemur -27.0771 20.5364 -3.75988
ltibia 86.1682
lfoot 7.07509 -17.6855
ltoes 19.4756
228
root 5.47629 23.1206 -9.46472 3.35408 -2.16205 -6.31253
lowerback 20.4905 2.94549 5.53985
upperback 5.04392 5.60866 8.49032
thorax -6.29924 2.6805 4.63739
lowerneck -10.246 -6.8361 1.30365
upperneck 5.85416 -9.44959 1.58397
head 3.7426 -4.56399 -0.309
rclavicle -2.94201e-014 -5.88403e-014
rhumerus 7.04228 -11.9054 4.43897
rradius 24.555
rwrist 5.44692
rhand -35.5992 -37.9233
rfingers 7.12502
rthumb -8.72302 -67.723
lclavicle -2.94201e-014 -5.88403e-014
lhumerus -15.953 -4.12511 16.633
lradius 107.943
lwrist 46.9106
lhand -21.0174 8.12819
lfingers 7.12502
lthumb 5.35751 38.0405
rfemur -78.6644 -34.9305 -1.65134
rtibia 81.409
rfoot 6.66338 -3.49206
rtoes 14.9863
lfemur -26.5015 18.5675 -4.79482
ltibia 82.8814
lfoot 7.25929 -17.7544
ltoes 19.1075
229
root 5.43256 22.9003 -9.31078 3.43692 -2.10417 -6.47819
lowerback 19.8693 2.84638 5.64867
upperback 4.90226 5.43993 8.33073
thorax -6.08937 2.60178 4.46402
lowerneck -10.2546 -6.72175 1.38872
upperneck 5.96779 -9.31145 1.582
head 3.78007 -4.49137 -0.318478
rclavicle 2.54444e-014 -3.18055e-014
rhumerus 6.31623 -10.7518 5.3651
rradius 24.9752
rwrist 5.63104
rhand -35.3546 -37.3528
rfingers 7.12502
rthumb -8.48699 -67.1622
lclavicle 2.54444e-014 -3.18055e-014
lhumerus -16.5595 -3.65894 16.1574
lradius 106.594
lwrist 45.8494
lhand -20.7331 8.17912
lfingers 7.12502
lthumb 5.632 38.0843
rfemur -80.3007 -35.4618 0.697223
rtibia 86.447
rfoot 8.0371 -3.99886
rtoes 18.629
lfemur -25.8712 16.6483 -5.77716
ltibia 79.4206
lfoot 7.29197 -17.5278
ltoes 18.6931
230
root 5.39008 22.6716 -9.15397 3.5614 -2.09672 -6.66138
lowerback 19.1929 2.75865 5.76818
upperback 4.74504 5.28189 8.16033
thorax -5.86524 2.52821 4.27114
lowerneck -10.2815 -6.58945 1.49842
upperneck 6.15591 -9.15232 1.54494
head 3.84463 -4.40776 -0.344821
rclavicle 2.54444e-014 2.38542e-014
rhumerus 5.60168 -9.86266 6.08709
rradius 25.456
rwrist 5.88433
rhand -35.0618 -36.6897
rfingers 7.12502
rthumb -8.20444 -66.5104
lclavicle 2.54444e-014 2.38542e-014
lhumerus -17.1639 -3.05751 15.7377
lradius 105.17
lwrist 44.7996
lhand -20.8272 8.15683
lfingers 7.12502
lthumb 5.54117 38.0644
rfemur -81.6219 -35.8261 3.11032
rtibia 91.0052
rfoot 9.33453 -5.2889
rtoes 22.5844
lfemur -25.1535 14.8044 -6.73792
ltibia 75.7389
lfoot 7.13356 -17.0578
ltoes 18.1601
231
root 5.34852 22.4348 -8.99345 3.72827 -2.18255 -6.80891
lowerback 18.458 2.70791 5.8274
upperback 4.57497 5.15347 7.96893
thorax -5.62796 2.47001 4.08356
lowerneck -10.3296 -6.44606 1.62981
upperneck 6.4282 -8.98134 1.47319
head 3.94094 -4.31747 -0.388384
rclavicle -7.15625e-015 -3.18055e-015
rhumerus 4.88672 -9.30195 6.60913
rradius 26.0398
rwrist 6.04908
rhand -34.7069 -35.9418
rfingers 7.12502
rthumb -7.86185 -65.7756
lclavicle -7.15625e-015 -3.18055e-015
lhumerus -17.7744 -2.34235 15.3683
lradius 103.736
lwrist 43.9442
lhand -21.2341 8.06606
lfingers 7.12502
lthumb 5.14827 37.9835
rfemur -82.6128 -35.9843 5.51807
rtibia 95.0258
rfoot 10.4278 -7.09504
rtoes 26.7068
lfemur -24.3175 13.0563 -7.71842
ltibia 71.7927
lfoot 6.84025 -16.3958
ltoes 17.7104
232
root 5.30746 22.19 -8.82943 3.94046 -2.39665 -6.86733
lowerback 17.6769 2.713 5.75758
upperback 4.38996 5.06962 7.74358
thorax -5.39056 2.43503 3.92284
lowerneck -10.4069 -6.29588 1.77454
upperneck 6.78901 -8.80496 1.38437
head 4.07412 -4.22283 -0.442936
rclavicle 1.43125e-014 4.29375e-014
rhumerus 4.14883 -9.06652 6.95395
rradius 26.7768
rwrist 5.97065
rhand -34.3246 -35.1443
rfingers 7.12502
rthumb -7.49292 -64.9916
lclavicle 1.43125e-014 4.29375e-014
lhumerus -18.3907 -1.5397 15.036
lradius 102.341
lwrist 43.4241
lhand -21.8503 7.9111
lfingers 7.12502
lthumb 4.5533 37.8422
rfemur -83.264 -35.9018 7.83641
rtibia 98.4574
rfoot 11.247 -9.08334
rtoes 30.7161
lfemur -23.3554 11.4179 -8.76634
ltibia 67.5575
lfoot 6.48685 -15.5698
ltoes 17.4648
233
root 5.26586 21.9371 -8.66163 4.18552 -2.75141 -6.8114
lowerback 16.8511 2.78088 5.51169
upperback 4.20349 5.03415 7.48383
thorax -5.14252 2.42589 3.81583
lowerneck -10.5212 -6.14091 1.92256
upperneck 7.21815 -8.6265 1.30317
head 4.24098 -4.12476 -0.498681
rclavicle 5.88403e-014 1.1291e-013
rhumerus 3.34578 -9.04015 7.18368
rradius 27.744
rwrist 5.42085
rhand -33.9954 -34.4459
rfingers 7.12502
rthumb -7.17508 -64.3043
lclavicle 5.88403e-014 1.1291e-013
lhumerus -19.0278 -0.665215 14.7265
lradius 101.042
lwrist 43.3102
lhand -22.5587 7.71526
lfingers 7.12502
lthumb 3.86926 37.6599
rfemur -83.5432 -35.5578 9.98458
rtibia 101.265
rfoot 11.8018 -10.885
rtoes 34.1913
lfemur -22.2569 9.88706 -9.88956
ltibia 63.0344
lfoot 6.14345 -14.641
ltoes 17.4005
234
root 5.22304 21.675 -8.49025 4.45142 -3.24558 -6.6346
lowerback 15.9993 2.90633 5.0802
upperback 4.01673 5.04572 7.18453
thorax -4.89237 2.44162 3.76376
lowerneck -10.6497 -5.98553 2.07956
upperneck 7.66789 -8.45293 1.24953
head 4.4209 -4.02655 -0.548172
rclavicle -7.07673e-014 -1.145e-013
rhumerus 2.41361 -8.99412 7.37068
rradius 29.0218
rwrist 4.21615
rhand -33.8438 -33.9879
rfingers 7.12502
rthumb -7.02879 -63.8512
lclavicle -7.07673e-014 -1.145e-013
lhumerus -19.699 0.246009 14.4128
lradius 99.8785
lwrist 43.6118
lhand -23.2059 7.48667
lfingers 7.12502
lthumb 3.24426 37.4417
rfemur -83.4228 -34.9465 11.8852
rtibia 103.424
rfoot 12.1575 -12.174
rtoes 36.8578
lfemur -21.0384 8.45227 -11.0795
ltibia 58.2622
lfoot 5.90666 -13.6436
ltoes 17.5007
235
root 5.17782 21.402 -8.31587 4.72388 -3.85445 -6.35681
lowerback 15.1342 3.07208 4.47307
upperback 3.83968 5.09013 6.85861
thorax -4.63649 2.47503 3.7794
lowerneck -10.8017 -5.82067 2.23504
upperneck 8.10678 -8.27202 1.2388
head 4.60585 -3.92208 -0.58303
rclavicle -1.90833e-014 -4.92986e-014
rhumerus 1.31143 -8.74027 7.57782
rradius 30.6632
rwrist 2.35551
rhand -33.9827 -33.9125
rfingers 7.12502
rthumb -7.16284 -63.7713
lclavicle -1.90833e-014 -4.92986e-014
lhumerus -20.4585 1.17301 14.0825
lradius 98.9019
lwrist 44.2773
lhand -23.7393 7.31144
lfingers 7.12502
lthumb 2.72915 37.2737
rfemur -82.893 -34.0772 13.4981
rtibia 104.922
rfoot 12.4164 -12.7456
rtoes 38.5022
lfemur -19.7367 7.10141 -12.3007
ltibia 53.3209
lfoot 5.8347 -12.6356
ltoes 17.525
